<?xml version="1.0" standalone="no"?>
<!DOCTYPE svg PUBLIC "-//W3C//DTD SVG 20010904//EN"
 "http://www.w3.org/TR/2001/REC-SVG-20010904/DTD/svg10.dtd">
<svg version="1.0" xmlns="http://www.w3.org/2000/svg"
 width="328.000000pt" height="328.000000pt" viewBox="0 0 328.000000 328.000000"
 preserveAspectRatio="xMidYMid meet">
<metadata>
Created by potrace 1.14, written by Peter Selinger 2001-2017
</metadata>
<g transform="translate(0.000000,328.000000) scale(0.100000,-0.100000)"
fill="#000000" stroke="none">
<path d="M869 3273 c-1 -5 -2 -37 -3 -73 -1 -49 -9 -81 -29 -123 -33 -66 -60
-88 -143 -115 -81 -27 -113 -44 -148 -81 -17 -17 -35 -31 -42 -31 -7 0 -23
-15 -35 -32 -13 -18 -27 -36 -31 -39 -5 -3 -12 -19 -17 -37 -7 -23 -6 -34 4
-42 11 -9 21 -5 44 19 71 73 158 82 231 23 55 -44 59 -50 67 -84 3 -16 9 -28
13 -28 10 0 23 -46 26 -95 5 -89 -119 -272 -216 -316 -19 -9 -45 -26 -56 -37
-21 -20 -92 -62 -105 -62 -3 0 -31 -25 -63 -55 -31 -30 -63 -55 -70 -55 -8 0
-24 -15 -35 -32 -11 -18 -34 -42 -51 -53 -21 -14 -38 -40 -57 -90 -41 -108
-35 -209 17 -301 18 -30 44 -62 58 -72 15 -9 34 -24 42 -33 8 -9 42 -24 75
-33 33 -9 78 -23 101 -30 27 -9 46 -11 58 -4 17 9 119 20 186 18 133 -2 240
-9 252 -16 7 -5 58 -10 113 -10 137 -3 204 -11 221 -29 9 -8 19 -15 23 -15 14
0 41 -59 41 -89 0 -29 -2 -31 -40 -31 -51 0 -181 -85 -200 -130 -10 -23 -23
-33 -59 -44 -44 -13 -46 -15 -45 -49 1 -22 13 -51 34 -81 56 -77 103 -98 155
-67 18 10 43 17 56 16 13 -1 29 -3 36 -4 6 0 18 -7 25 -13 7 -7 30 -26 51 -41
26 -20 37 -36 37 -54 0 -62 232 -243 285 -223 11 4 41 5 67 3 42 -5 53 -1 122
42 81 50 94 51 138 10 l26 -24 -14 -62 c-8 -34 -17 -65 -19 -69 -3 -5 -8 -30
-11 -56 -3 -26 -11 -56 -18 -68 -14 -21 -20 -67 -19 -139 1 -40 35 -87 65 -87
9 0 20 -5 23 -10 8 -12 44 -7 81 13 36 19 81 5 86 -26 2 -18 11 -23 43 -25 35
-2 46 3 89 43 27 25 55 45 63 45 7 0 20 11 29 25 9 14 22 25 30 25 16 0 124
108 125 127 2 21 4 27 11 38 3 6 9 30 12 55 3 25 10 60 16 79 5 18 9 36 8 40
-1 3 2 26 6 51 4 27 3 63 -4 90 -7 25 -14 61 -17 80 -3 19 -10 41 -16 48 -11
14 -12 156 -1 173 6 10 -43 63 -84 91 l-23 15 46 48 c25 27 45 53 45 59 0 6
13 23 29 39 32 32 66 95 77 144 4 20 38 61 60 73 16 9 32 8 72 -3 27 -9 52
-14 54 -11 3 2 18 6 34 8 62 9 100 27 142 68 123 120 112 103 112 173 0 35 -5
67 -11 70 -5 4 -34 8 -63 9 -48 3 -156 41 -156 56 0 3 -16 22 -34 42 -19 20
-40 56 -46 79 -19 70 -58 123 -88 117 -15 -3 -53 -62 -82 -127 -14 -33 -58
-84 -84 -98 -22 -12 -70 -10 -121 5 -47 14 -115 -16 -137 -59 -9 -19 -17 -43
-17 -54 -1 -67 -11 -224 -16 -245 -3 -14 -9 -50 -15 -80 -19 -112 -61 -194
-119 -232 -44 -29 -51 -29 -119 6 -45 22 -45 22 -30 86 2 9 14 30 26 47 49 69
22 303 -35 303 -9 0 -32 -12 -52 -27 -19 -15 -42 -29 -51 -30 -44 -7 -177 -45
-202 -58 -17 -8 -45 -17 -64 -21 -39 -7 -42 0 -31 71 1 6 5 13 10 16 4 3 9 19
11 36 9 69 67 110 154 108 56 -2 86 15 64 37 -8 8 -4 25 15 62 35 70 83 116
120 116 35 0 92 26 94 43 1 7 2 37 3 67 2 101 76 213 183 279 29 18 69 34 89
36 42 4 60 19 69 57 6 21 2 30 -19 43 -14 9 -42 42 -62 73 -47 72 -62 86 -153
147 -71 47 -147 135 -148 169 0 6 -3 21 -7 34 -4 13 -3 22 3 22 16 0 9 58 -8
65 -9 3 -41 8 -71 11 -43 4 -62 1 -90 -15 -19 -11 -54 -30 -77 -42 -23 -12
-63 -39 -89 -61 -59 -49 -109 -53 -125 -10 -6 15 -12 38 -13 52 -2 14 -8 35
-15 48 -6 12 -10 22 -7 22 3 0 -4 20 -15 45 -21 47 -27 90 -28 188 -1 48 -5
62 -26 83 -22 22 -27 23 -40 10 -8 -8 -15 -26 -15 -40 0 -31 -48 -83 -85 -92
-15 -4 -46 -4 -69 -1 -42 6 -333 142 -365 171 -19 17 -30 20 -32 9z"/>
</g>
</svg>
